<svg width="18" height="18" viewBox="0 0 18 18" fill="none" xmlns="http://www.w3.org/2000/svg">
<path d="M14.7855 8.99983C14.4305 8.99983 14.1426 9.28764 14.1426 9.64269V16.0711C14.1426 16.4262 13.8548 16.714 13.4998 16.714H1.92855C1.5735 16.714 1.28568 16.4262 1.28568 16.0711V3.21419C1.28568 2.85914 1.5735 2.57133 1.92855 2.57133H9.64273C9.99778 2.57133 10.2856 2.28352 10.2856 1.92847C10.2856 1.57342 9.99778 1.28564 9.64273 1.28564H1.92855C0.863439 1.28564 0 2.14908 0 3.21419V16.0711C0 17.1363 0.863439 17.9997 1.92855 17.9997H13.4998C14.5649 17.9997 15.4284 17.1363 15.4284 16.0711V9.64265C15.4284 9.28764 15.1406 8.99983 14.7855 8.99983Z" fill="#EB9001"/>
<path d="M17.2794 0.720879C16.8178 0.259234 16.1918 -6.51633e-05 15.539 1.01705e-05C14.8858 -0.00187318 14.2591 0.257878 13.7988 0.721294L5.33115 9.18821C5.26091 9.25899 5.20791 9.34502 5.17623 9.43956L3.89055 13.2967C3.77834 13.6335 3.96045 13.9975 4.29731 14.1097C4.36266 14.1315 4.4311 14.1426 4.49996 14.1427C4.56896 14.1425 4.63756 14.1315 4.7031 14.1099L8.56019 12.8242C8.65492 12.7926 8.74099 12.7393 8.81154 12.6686L17.2791 4.20104C18.2402 3.24008 18.2403 1.68195 17.2794 0.720879ZM16.3702 3.29266L8.01312 11.6497L5.51629 12.4835L6.34748 9.98984L14.7077 1.63283C15.1673 1.17413 15.9118 1.17488 16.3705 1.63449C16.5897 1.85405 16.7131 2.15128 16.7141 2.46147C16.7149 2.77331 16.591 3.07254 16.3702 3.29266Z" fill="#EB9001"/>
</svg>
