<svg width="21" height="21" viewBox="0 0 21 21" fill="none" xmlns="http://www.w3.org/2000/svg">
<path d="M19.4757 7.81812L18.4516 7.64445C18.3604 7.39066 18.2574 7.14169 18.1435 6.8996L18.7465 6.05589C19.2713 5.31873 19.187 4.32314 18.5482 3.69061L17.3176 2.45982C16.9697 2.11198 16.5086 1.92036 16.0193 1.92036C15.634 1.92036 15.2655 2.03909 14.9563 2.26163L14.1094 2.86485C13.8474 2.741 13.5816 2.63157 13.3141 2.53704L13.1447 1.5336C12.9957 0.644875 12.2334 0 11.332 0H9.59333C8.69211 0 7.92979 0.644875 7.78111 1.53184L7.60311 2.57453C7.35173 2.66634 7.10387 2.77064 6.86115 2.88712L6.02962 2.28822C5.71783 2.06376 5.34789 1.9452 4.95969 1.9452C4.46558 1.9452 4.00431 2.13714 3.66032 2.48577L2.42681 3.71528C1.78979 4.3523 1.70631 5.34709 2.22846 6.08057L2.84129 6.94157C2.72834 7.18462 2.62676 7.43472 2.53704 7.68995L1.53344 7.8593C0.644875 8.00846 0 8.77077 0 9.672V11.4107C0 12.3119 0.644875 13.0742 1.53184 13.2231L2.57453 13.4009C2.66634 13.6524 2.7708 13.9005 2.88712 14.143L2.29047 14.9729C1.76575 15.7101 1.85003 16.7059 2.48882 17.3382L3.71944 18.569C4.06728 18.9169 4.52838 19.1085 5.01768 19.1085C5.40301 19.1085 5.77151 18.9898 6.08057 18.7674L6.94157 18.1545C7.1678 18.2596 7.40236 18.3559 7.64317 18.4426L7.8138 19.4666C7.96296 20.3551 8.72527 21 9.6265 21H11.3692C12.2704 21 13.0329 20.3551 13.1817 19.4677L13.3554 18.4434C13.6092 18.3522 13.8582 18.2492 14.1002 18.1353L14.9412 18.7365C15.253 18.9609 15.6229 19.0796 16.0112 19.0796C16.5003 19.0796 16.9614 18.888 17.3092 18.5402L18.5399 17.3094C19.177 16.6724 19.2604 15.6776 18.7382 14.9441L18.1345 14.0964C18.2515 13.8487 18.3548 13.5999 18.4437 13.3525L19.4664 13.182C20.355 13.0329 20.9998 12.2706 20.9998 11.3693V9.63419C21.0099 8.732 20.3697 7.96873 19.4757 7.81812ZM19.7694 11.3693C19.7694 11.6672 19.5563 11.9192 19.2634 11.9684L17.907 12.1945C17.6567 12.2361 17.4549 12.4127 17.3797 12.6554C17.2592 13.0459 17.0937 13.445 16.8882 13.841C16.7719 14.0644 16.7905 14.3305 16.9366 14.5352L17.7359 15.6577C17.9083 15.9 17.8806 16.2287 17.6699 16.4394L16.4393 17.67C16.3221 17.7872 16.1741 17.8492 16.0112 17.8492C15.8827 17.8492 15.7614 17.8107 15.6585 17.7367L14.5408 16.9379C14.3353 16.7903 14.068 16.7717 13.8436 16.8891C13.4677 17.0859 13.0683 17.2514 12.6564 17.3807C12.416 17.456 12.2406 17.6572 12.1988 17.9049L11.9684 19.2628C11.9192 19.5564 11.6672 19.7695 11.3692 19.7695H9.6265C9.32849 19.7695 9.07663 19.5564 9.02744 19.2636L8.80138 17.9072C8.76004 17.6585 8.58508 17.457 8.34476 17.381C7.93877 17.2528 7.55216 17.0939 7.19536 16.9085C7.09811 16.8581 6.99284 16.8332 6.88806 16.8332C6.75252 16.8332 6.61761 16.8749 6.5021 16.9571L5.3644 17.7668C5.26186 17.8407 5.14522 17.878 5.01768 17.878C4.85474 17.878 4.7067 17.8162 4.58958 17.6989L3.35671 16.4662C3.14635 16.2579 3.11959 15.9301 3.29118 15.689L4.0857 14.5838C4.23518 14.3763 4.25345 14.1071 4.13297 13.8807C3.93093 13.5018 3.7635 13.1045 3.63517 12.6996C3.55923 12.4609 3.3588 12.2864 3.11206 12.2443L1.73708 12.0099C1.44356 11.9605 1.23047 11.7085 1.23047 11.4107V9.672C1.23047 9.37415 1.44356 9.12213 1.73756 9.07278L3.07729 8.84672C3.32771 8.80458 3.52943 8.62754 3.60393 8.38401C3.73034 7.97033 3.89296 7.57027 4.0873 7.19536C4.20298 6.9725 4.18439 6.70702 4.03876 6.5021L3.23094 5.36712C3.05839 5.12487 3.08611 4.7961 3.29615 4.58606L4.53094 3.35543L4.53543 3.35078C4.64646 3.23783 4.79707 3.17567 4.95969 3.17567C5.08818 3.17567 5.20963 3.21412 5.31056 3.28686L6.42055 4.08586C6.62835 4.2355 6.89783 4.25345 7.12342 4.13297C7.50233 3.93093 7.89967 3.7635 8.30406 3.63533C8.54279 3.55955 8.71726 3.35944 8.75972 3.11206L8.99428 1.73708C9.04346 1.44356 9.29549 1.23047 9.59349 1.23047H11.3322C11.63 1.23047 11.882 1.44356 11.9314 1.73756L12.1574 3.07777C12.1997 3.32835 12.3771 3.52991 12.6208 3.60425C13.0362 3.7305 13.4506 3.90097 13.8525 4.11118C14.0759 4.22781 14.342 4.20955 14.5477 4.06327L15.6728 3.26202C15.7752 3.18816 15.8918 3.15083 16.0195 3.15083C16.1823 3.15083 16.3303 3.21268 16.4476 3.32996L17.6803 4.56267C17.8907 4.77095 17.9176 5.09875 17.7449 5.34116L16.9452 6.45996C16.7985 6.66568 16.7802 6.9326 16.8973 7.15627C17.0942 7.53214 17.2596 7.93156 17.389 8.34364C17.4645 8.58396 17.6656 8.75924 17.9133 8.80106L19.27 9.03129L19.2711 9.03145C19.5638 9.08064 19.7735 9.32897 19.7694 9.62201V11.3693Z" fill="#EB9001"/>
<path d="M10.5 6.41699C8.2486 6.41699 6.41699 8.2486 6.41699 10.5C6.41699 12.7513 8.2486 14.5829 10.5 14.5829C12.7513 14.5829 14.5829 12.7513 14.5829 10.5C14.5829 8.2486 12.7513 6.41699 10.5 6.41699ZM10.5 13.3525C8.92712 13.3525 7.64746 12.0728 7.64746 10.5C7.64746 8.92712 8.92712 7.64746 10.5 7.64746C12.0728 7.64746 13.3525 8.92712 13.3525 10.5C13.3525 12.0728 12.0728 13.3525 10.5 13.3525Z" fill="#EB9001"/>
</svg>
