<svg width="22" height="22" viewBox="0 0 22 22" fill="none" xmlns="http://www.w3.org/2000/svg">
<g clip-path="url(#clip0)">
<path d="M21.9785 6.46806C21.927 5.29912 21.7379 4.49548 21.4672 3.79911C21.1878 3.05994 20.758 2.39816 20.195 1.84802C19.6448 1.28931 18.9787 0.855178 18.2481 0.580191C17.5477 0.309402 16.7482 0.12037 15.5793 0.0688306C14.4016 0.0129267 14.0277 0 11.0408 0C8.05393 0 7.68006 0.0129267 6.50675 0.0644657C5.33781 0.116005 4.53417 0.305205 3.83797 0.575827C3.09863 0.855178 2.43685 1.28495 1.88671 1.84802C1.32801 2.39816 0.894042 3.0643 0.618887 3.79492C0.348098 4.49548 0.159066 5.29475 0.107527 6.4637C0.051623 7.64137 0.0386963 8.01524 0.0386963 11.0021C0.0386963 13.9891 0.051623 14.3629 0.103162 15.5362C0.154701 16.7052 0.343901 17.5088 0.61469 18.2052C0.894042 18.9444 1.32801 19.6061 1.88671 20.1563C2.43685 20.715 3.103 21.1491 3.83361 21.4241C4.53417 21.6949 5.33344 21.8839 6.50256 21.9355C7.6757 21.9872 8.04973 21.9999 11.0366 21.9999C14.0236 21.9999 14.3974 21.9872 15.5707 21.9355C16.7397 21.8839 17.5433 21.6949 18.2395 21.4241C19.718 20.8525 20.887 19.6835 21.4586 18.2052C21.7292 17.5046 21.9184 16.7052 21.97 15.5362C22.0215 14.3629 22.0344 13.9891 22.0344 11.0021C22.0344 8.01524 22.0301 7.64137 21.9785 6.46806ZM19.9974 15.4503C19.95 16.5247 19.7696 17.1049 19.6191 17.4917C19.2495 18.4501 18.4888 19.2108 17.5304 19.5805C17.1436 19.7309 16.5592 19.9113 15.489 19.9585C14.3286 20.0102 13.9806 20.023 11.0452 20.023C8.10983 20.023 7.75745 20.0102 6.60127 19.9585C5.52684 19.9113 4.94665 19.7309 4.55986 19.5805C4.08291 19.4042 3.64877 19.1248 3.2964 18.7595C2.93109 18.4028 2.65174 17.973 2.47547 17.4961C2.32505 17.1093 2.14458 16.5247 2.0974 15.4546C2.04569 14.2943 2.03294 13.9461 2.03294 11.0107C2.03294 8.07534 2.04569 7.72296 2.0974 6.56694C2.14458 5.49251 2.32505 4.91232 2.47547 4.52553C2.65174 4.04841 2.93109 3.61444 3.30076 3.2619C3.65734 2.89659 4.08711 2.61724 4.56422 2.44114C4.95101 2.29072 5.53557 2.11024 6.60563 2.0629C7.76602 2.01136 8.1142 1.99844 11.0494 1.99844C13.9891 1.99844 14.3372 2.01136 15.4933 2.0629C16.5678 2.11024 17.148 2.29072 17.5347 2.44114C18.0117 2.61724 18.4458 2.89659 18.7982 3.2619C19.1635 3.61864 19.4429 4.04841 19.6191 4.52553C19.7696 4.91232 19.95 5.49671 19.9974 6.56694C20.0489 7.72732 20.0618 8.07534 20.0618 11.0107C20.0618 13.9461 20.0489 14.2899 19.9974 15.4503Z" fill="#28a745"/>
<path d="M11.0408 5.35065C7.92074 5.35065 5.38928 7.88193 5.38928 11.0021C5.38928 14.1223 7.92074 16.6536 11.0408 16.6536C14.161 16.6536 16.6923 14.1223 16.6923 11.0021C16.6923 7.88193 14.161 5.35065 11.0408 5.35065ZM11.0408 14.6681C9.01665 14.6681 7.37479 13.0264 7.37479 11.0021C7.37479 8.97785 9.01665 7.33616 11.0408 7.33616C13.0651 7.33616 14.7068 8.97785 14.7068 11.0021C14.7068 13.0264 13.0651 14.6681 11.0408 14.6681Z" fill="#28a745"/>
<path d="M18.2352 5.12717C18.2352 5.85576 17.6444 6.44653 16.9157 6.44653C16.1871 6.44653 15.5963 5.85576 15.5963 5.12717C15.5963 4.3984 16.1871 3.8078 16.9157 3.8078C17.6444 3.8078 18.2352 4.3984 18.2352 5.12717Z" fill="#28a745"/>
</g>
<defs>
<clipPath id="clip0">
<rect width="22" height="22" fill="white"/>
</clipPath>
</defs>
</svg>
