<svg width="22" height="22" viewBox="0 0 22 22" fill="none" xmlns="http://www.w3.org/2000/svg">
<g clip-path="url(#clip0)">
<path d="M21.9945 22V21.9991H22V13.9306C22 9.98345 21.1503 6.94287 16.5358 6.94287C14.3175 6.94287 12.8288 8.16021 12.221 9.31429H12.1569V7.31137H7.78162V21.9991H12.3375V14.7263C12.3375 12.8114 12.7005 10.9597 15.0719 10.9597C17.4085 10.9597 17.4433 13.145 17.4433 14.8491V22H21.9945Z" fill="#28a745"/>
<path d="M0.363037 7.31219H4.92437V21.9999H0.363037V7.31219Z" fill="#28a745"/>
<path d="M2.64183 0C1.18342 0 0 1.18342 0 2.64183C0 4.10025 1.18342 5.30842 2.64183 5.30842C4.10025 5.30842 5.28367 4.10025 5.28367 2.64183C5.28275 1.18342 4.09933 0 2.64183 0V0Z" fill="#28a745"/>
</g>
<defs>
<clipPath id="clip0">
<rect width="22" height="22" fill="white"/>
</clipPath>
</defs>
</svg>
