<svg width="34" height="34" viewBox="0 0 34 34" fill="none" xmlns="http://www.w3.org/2000/svg">
<path d="M28.5387 2.29102H5.42813C3.01182 2.29102 1.0459 4.25655 1.0459 6.67324V20.8164C1.0459 23.2277 3.00326 25.1901 5.41256 25.1986V31.6166L14.636 25.1986H28.5387C30.955 25.1986 32.9209 23.2327 32.9209 20.8164V6.67324C32.9209 4.25655 30.955 2.29102 28.5387 2.29102ZM31.0532 20.8164C31.0532 22.2028 29.9252 23.331 28.5387 23.331H14.05L7.28024 28.0418V23.331H5.42813C4.04157 23.331 2.91357 22.2028 2.91357 20.8164V6.67324C2.91357 5.28649 4.04157 4.15869 5.42813 4.15869H28.5387C29.9252 4.15869 31.0532 5.28649 31.0532 6.67324V20.8164Z" fill="#EB9001"/>
<path d="M9.57715 8.89014H24.3898V10.7578H9.57715V8.89014Z" fill="#EB9001"/>
<path d="M9.57715 12.8745H24.3898V14.7422H9.57715V12.8745Z" fill="#EB9001"/>
<path d="M9.57715 16.8589H24.3898V18.7266H9.57715V16.8589Z" fill="#EB9001"/>
</svg>
