<svg width="31" height="31" viewBox="0 0 31 31" fill="none" xmlns="http://www.w3.org/2000/svg">
<g clip-path="url(#clip0)">
<path d="M24.5778 4.06157H21.7733V2.80693C21.7733 2.401 21.3305 2.21651 20.9245 2.21651H18.7474C18.2308 0.740429 16.9392 0.00238934 15.4631 0.00238934C14.0033 -0.0524922 12.6754 0.842634 12.1788 2.21651H10.0385C9.63258 2.21651 9.22665 2.401 9.22665 2.80693V4.06157H6.42205C4.76006 4.0793 3.40039 5.39038 3.32227 7.0506V28.1954C3.32227 29.8191 4.79834 30.9999 6.42205 30.9999H24.5778C26.2015 30.9999 27.6776 29.8191 27.6776 28.1954V7.05067C27.5995 5.39038 26.2398 4.0793 24.5778 4.06157ZM10.7027 3.69259H12.7323C13.0866 3.64936 13.3712 3.37983 13.4335 3.02836C13.652 2.07666 14.4869 1.3935 15.4631 1.36779C16.4302 1.3971 17.2526 2.08238 17.4558 3.02836C17.522 3.39198 17.8253 3.66497 18.1938 3.69259H20.2972V6.64475H10.7027V3.69259ZM26.2015 28.1954C26.2015 29.0073 25.3896 29.5239 24.5778 29.5239H6.42205C5.6102 29.5239 4.79834 29.0073 4.79834 28.1954V7.05067C4.87364 6.20562 5.57375 5.55319 6.42205 5.53772H9.22658V7.41973C9.26557 7.83321 9.62368 8.14251 10.0384 8.1209H20.9245C21.3468 8.14399 21.7162 7.83893 21.7732 7.41973V5.53765H24.5777C25.426 5.55319 26.1261 6.20555 26.2014 7.0506V28.1954H26.2015Z" fill="#EB9001"/>
<path d="M12.6586 16.4977C12.3818 16.2059 11.9222 16.1894 11.6253 16.4608L9.26354 18.7118L8.2672 17.6785C7.99039 17.3867 7.53086 17.3703 7.23392 17.6416C6.94807 17.9411 6.94807 18.4123 7.23392 18.7118L8.74687 20.2617C8.87782 20.4083 9.06697 20.4894 9.26347 20.4831C9.45814 20.4804 9.64383 20.4007 9.78008 20.2617L12.6584 17.531C12.9438 17.2692 12.9629 16.8256 12.701 16.5403C12.6876 16.5254 12.6734 16.5112 12.6586 16.4977Z" fill="#EB9001"/>
<path d="M23.2494 18.0845H14.762C14.3543 18.0845 14.0239 18.4149 14.0239 18.8225C14.0239 19.2301 14.3543 19.5606 14.762 19.5606H23.2494C23.657 19.5606 23.9874 19.2301 23.9874 18.8225C23.9874 18.4149 23.657 18.0845 23.2494 18.0845Z" fill="#EB9001"/>
<path d="M12.6586 10.5934C12.3818 10.3016 11.9222 10.2851 11.6253 10.5565L9.26354 12.8075L8.2672 11.7742C7.99039 11.4824 7.53086 11.466 7.23392 11.7373C6.94807 12.0368 6.94807 12.508 7.23392 12.8075L8.74687 14.3574C8.87782 14.504 9.06697 14.5851 9.26347 14.5788C9.45814 14.5761 9.64383 14.4965 9.78008 14.3574L12.6584 11.6267C12.9438 11.3649 12.9629 10.9213 12.701 10.636C12.6876 10.6211 12.6734 10.6069 12.6586 10.5934Z" fill="#EB9001"/>
<path d="M23.2494 12.1802H14.762C14.3543 12.1802 14.0239 12.5106 14.0239 12.9182C14.0239 13.3258 14.3543 13.6563 14.762 13.6563H23.2494C23.657 13.6563 23.9874 13.3258 23.9874 12.9182C23.9874 12.5106 23.657 12.1802 23.2494 12.1802Z" fill="#EB9001"/>
<path d="M12.6586 22.4019C12.3818 22.1102 11.9222 22.0938 11.6253 22.3651L9.26354 24.6161L8.2672 23.5828C7.99039 23.291 7.53086 23.2746 7.23392 23.5459C6.94807 23.8454 6.94807 24.3166 7.23392 24.6161L8.74687 26.166C8.87782 26.3126 9.06697 26.3937 9.26347 26.3874C9.45814 26.3846 9.64383 26.305 9.78008 26.166L12.6584 23.4352C12.9438 23.1735 12.9629 22.7299 12.701 22.4446C12.6876 22.4298 12.6734 22.4156 12.6586 22.4019Z" fill="#EB9001"/>
<path d="M23.2494 23.9883H14.762C14.3543 23.9883 14.0239 24.3187 14.0239 24.7263C14.0239 25.1339 14.3543 25.4644 14.762 25.4644H23.2494C23.657 25.4644 23.9874 25.1339 23.9874 24.7263C23.9874 24.3187 23.657 23.9883 23.2494 23.9883Z" fill="#EB9001"/>
</g>
<defs>
<clipPath id="clip0">
<rect width="31" height="31" fill="white"/>
</clipPath>
</defs>
</svg>
