<svg width="157" height="157" viewBox="0 0 157 157" fill="none" xmlns="http://www.w3.org/2000/svg">
<path d="M145.015 68.6875H137.377C136.942 67.1125 136.006 65.7219 134.71 64.7261C133.415 63.7303 131.83 63.1833 130.197 63.1679H122.043V43.2289C122.052 42.8559 121.962 42.4872 121.782 42.1606C121.601 41.8339 121.337 41.5611 121.017 41.3701L63.4982 8.14804C63.1741 7.95961 62.8058 7.86035 62.4308 7.86035C62.0559 7.86035 61.6876 7.95961 61.3634 8.14804L3.82689 41.3701C3.50133 41.5588 3.23127 41.83 3.04393 42.1563C2.85658 42.4827 2.75857 42.8526 2.75978 43.2289V109.673C2.75979 110.05 2.85897 110.42 3.04736 110.747C3.23576 111.073 3.50672 111.344 3.83302 111.532L61.3754 144.754C61.7017 144.943 62.0718 145.042 62.4486 145.042C62.8351 145.042 63.2152 144.943 63.5525 144.754L93.832 127.289V139.915C93.8289 141.117 94.0643 142.307 94.5244 143.418C94.9846 144.528 95.6605 145.536 96.5129 146.384C97.3654 147.232 98.3775 147.902 99.4906 148.355C100.604 148.809 101.796 149.037 102.998 149.027H145.015C146.22 149.038 147.416 148.811 148.533 148.359C149.65 147.906 150.666 147.237 151.524 146.39C152.381 145.543 153.062 144.535 153.529 143.424C153.995 142.312 154.237 141.12 154.24 139.915V77.9425C154.239 75.4936 153.267 73.1449 151.539 71.4104C149.81 69.6759 147.464 68.6969 145.015 68.6875ZM130.273 67.4609C131.099 67.4609 131.892 67.7892 132.476 68.3735C133.06 68.9578 133.389 69.7503 133.389 70.5767V70.7846C133.389 71.6109 133.06 72.4035 132.476 72.9878C131.892 73.5721 131.099 73.9004 130.273 73.9004H117.799C116.973 73.9004 116.181 73.5721 115.596 72.9878C115.012 72.4035 114.684 71.6109 114.684 70.7846V70.5767C114.684 69.7503 115.012 68.9578 115.596 68.3735C116.181 67.7892 116.973 67.4609 117.799 67.4609H130.273ZM62.4486 12.4855L86.3586 26.2898L33.1129 57.0311L9.20322 43.2268L62.4486 12.4855ZM60.4082 139.177L7.05275 108.434V46.9421L60.4082 77.6855V139.177ZM62.4486 73.9678L37.4059 59.5094L90.6516 28.7684L115.696 43.2268L62.4486 73.9678ZM93.832 77.9425V122.332L64.7012 139.177V77.6855L117.75 46.9421V63.1679H117.817C116.183 63.1833 114.598 63.7302 113.303 64.726C112.007 65.7219 111.071 67.1124 110.636 68.6875H102.998C100.555 68.6993 98.2171 69.681 96.4982 71.4167C94.7793 73.1524 93.8202 75.4997 93.832 77.9425ZM149.947 139.915C149.944 140.556 149.814 141.191 149.564 141.782C149.313 142.372 148.948 142.907 148.489 143.356C148.03 143.804 147.487 144.157 146.891 144.394C146.294 144.63 145.657 144.746 145.015 144.734H102.998C102.359 144.745 101.725 144.628 101.133 144.39C100.54 144.153 100.001 143.799 99.5471 143.35C99.0932 142.901 98.7335 142.366 98.4893 141.776C98.2451 141.186 98.1212 140.553 98.125 139.915V77.9425C98.1185 77.2966 98.2395 76.6557 98.481 76.0566C98.7225 75.4574 99.0798 74.9118 99.5324 74.4509C99.985 73.99 100.524 73.6229 101.119 73.3706C101.713 73.1183 102.352 72.9857 102.998 72.9804H110.72C111.18 74.4998 112.12 75.829 113.4 76.7689C114.679 77.7087 116.229 78.2085 117.817 78.1933H130.197C131.784 78.2085 133.334 77.7087 134.613 76.7689C135.893 75.8291 136.833 74.4998 137.293 72.9804H145.015C146.326 72.9887 147.58 73.5151 148.504 74.4447C149.428 75.3744 149.947 76.6318 149.947 77.9425V139.915Z" fill="#D0D0D0"/>
<path d="M105.469 99.6582H107.716C108.285 99.6582 108.831 99.4321 109.233 99.0295C109.636 98.627 109.862 98.081 109.862 97.5117C109.862 96.9424 109.636 96.3965 109.233 95.9939C108.831 95.5914 108.285 95.3652 107.716 95.3652H107.631V89.5391H113.551C113.686 89.9706 113.959 90.3461 114.327 90.6079C114.696 90.8698 115.14 91.0035 115.592 90.9885C116.162 90.9901 116.709 90.7655 117.114 90.364C117.518 89.9625 117.747 89.417 117.75 88.847V87.4027C117.745 86.8299 117.515 86.2822 117.108 85.8784C116.702 85.4747 116.153 85.2474 115.58 85.2461H105.469C105.187 85.2475 104.909 85.3045 104.649 85.4137C104.39 85.5229 104.154 85.6822 103.956 85.8825C103.758 86.0828 103.602 86.3202 103.496 86.5811C103.39 86.8419 103.336 87.1211 103.338 87.4027V97.5142C103.336 97.7951 103.39 98.0736 103.496 98.3336C103.603 98.5936 103.759 98.8301 103.957 99.0294C104.155 99.2286 104.391 99.3867 104.65 99.4947C104.91 99.6026 105.188 99.6582 105.469 99.6582Z" fill="#D0D0D0"/>
<path d="M105.484 119.283H115.604C116.173 119.283 116.719 119.057 117.121 118.655C117.524 118.252 117.75 117.706 117.75 117.137V107.018C117.75 106.448 117.524 105.902 117.121 105.5C116.719 105.097 116.173 104.871 115.604 104.871H105.484C104.915 104.871 104.369 105.097 103.967 105.5C103.564 105.902 103.338 106.448 103.338 107.018V117.137C103.338 117.706 103.564 118.252 103.967 118.655C104.369 119.057 104.915 119.283 105.484 119.283ZM107.631 109.164H113.457V114.99H107.631V109.164Z" fill="#D0D0D0"/>
<path d="M107.716 134.615H107.631V128.789H113.435C113.446 129.354 113.678 129.891 114.081 130.287C114.484 130.682 115.026 130.904 115.591 130.905C116.155 130.905 116.698 130.684 117.101 130.29C117.505 129.895 117.738 129.358 117.75 128.793V126.725C117.748 126.145 117.52 125.588 117.116 125.172C116.711 124.756 116.16 124.514 115.58 124.496H105.469C104.893 124.515 104.347 124.76 103.949 125.176C103.551 125.593 103.331 126.149 103.338 126.725V136.837C103.338 137.114 103.393 137.388 103.501 137.643C103.609 137.899 103.766 138.13 103.965 138.323C104.164 138.516 104.399 138.668 104.658 138.768C104.916 138.869 105.192 138.916 105.469 138.908H107.716C108.285 138.908 108.831 138.682 109.234 138.279C109.636 137.877 109.862 137.331 109.862 136.762C109.862 136.192 109.636 135.646 109.234 135.244C108.831 134.841 108.285 134.615 107.716 134.615Z" fill="#D0D0D0"/>
<path d="M120.522 87.8806L114.236 94.1668L112.324 92.2542C112.125 92.0549 111.888 91.8968 111.628 91.7889C111.367 91.681 111.088 91.6255 110.806 91.6255C110.524 91.6255 110.245 91.681 109.985 91.7889C109.724 91.8968 109.488 92.0549 109.288 92.2542C109.089 92.4536 108.931 92.6902 108.823 92.9506C108.715 93.2111 108.66 93.4902 108.66 93.7721C108.66 94.054 108.715 94.3331 108.823 94.5936C108.931 94.854 109.089 95.0907 109.288 95.29L112.719 98.7201C112.918 98.9194 113.155 99.0775 113.415 99.1854C113.676 99.2933 113.955 99.3488 114.237 99.3488C114.519 99.3488 114.798 99.2933 115.058 99.1854C115.319 99.0775 115.555 98.9194 115.755 98.7201L123.559 90.9154C123.962 90.5129 124.188 89.9669 124.188 89.3976C124.188 88.8283 123.962 88.2823 123.559 87.8797C123.157 87.4771 122.611 87.251 122.041 87.251C121.472 87.251 120.926 87.4771 120.523 87.8797L120.522 87.8806Z" fill="#D0D0D0"/>
<path d="M120.522 127.514L114.236 133.8L112.324 131.888C112.125 131.688 111.888 131.53 111.628 131.422C111.367 131.314 111.088 131.259 110.806 131.259C110.524 131.259 110.245 131.314 109.985 131.422C109.724 131.53 109.488 131.688 109.288 131.888C109.089 132.087 108.931 132.324 108.823 132.584C108.715 132.844 108.66 133.124 108.66 133.405C108.66 133.687 108.715 133.966 108.823 134.227C108.931 134.487 109.089 134.724 109.288 134.923L112.719 138.353C112.918 138.553 113.155 138.711 113.415 138.819C113.676 138.927 113.955 138.982 114.237 138.982C114.519 138.982 114.798 138.927 115.058 138.819C115.319 138.711 115.555 138.553 115.755 138.353L123.559 130.549C123.962 130.146 124.188 129.6 124.188 129.031C124.188 128.462 123.962 127.916 123.559 127.513C123.157 127.11 122.611 126.884 122.041 126.884C121.472 126.884 120.926 127.11 120.523 127.513L120.522 127.514Z" fill="#D0D0D0"/>
<path d="M142.544 90.459H129.062C128.493 90.459 127.947 90.6851 127.544 91.0877C127.142 91.4902 126.916 92.0362 126.916 92.6055C126.916 93.1748 127.142 93.7207 127.544 94.1233C127.947 94.5258 128.493 94.752 129.062 94.752H142.544C143.113 94.752 143.659 94.5258 144.062 94.1233C144.464 93.7207 144.69 93.1748 144.69 92.6055C144.69 92.0362 144.464 91.4902 144.062 91.0877C143.659 90.6851 143.113 90.459 142.544 90.459Z" fill="#D0D0D0"/>
<path d="M142.544 110.084H129.062C128.493 110.084 127.947 110.31 127.544 110.713C127.142 111.115 126.916 111.661 126.916 112.23C126.916 112.8 127.142 113.346 127.544 113.748C127.947 114.151 128.493 114.377 129.062 114.377H142.544C143.113 114.377 143.659 114.151 144.062 113.748C144.464 113.346 144.69 112.8 144.69 112.23C144.69 111.661 144.464 111.115 144.062 110.713C143.659 110.31 143.113 110.084 142.544 110.084Z" fill="#D0D0D0"/>
<path d="M142.544 129.709H129.062C128.493 129.709 127.947 129.935 127.544 130.338C127.142 130.74 126.916 131.286 126.916 131.855C126.916 132.425 127.142 132.971 127.544 133.373C127.947 133.776 128.493 134.002 129.062 134.002H142.544C143.113 134.002 143.659 133.776 144.062 133.373C144.464 132.971 144.69 132.425 144.69 131.855C144.69 131.286 144.464 130.74 144.062 130.338C143.659 129.935 143.113 129.709 142.544 129.709Z" fill="#D0D0D0"/>
</svg>
