<svg width="35" height="31" viewBox="0 0 35 31" fill="none" xmlns="http://www.w3.org/2000/svg">
<path d="M30.7113 0.979492C28.3466 0.979492 26.4226 2.90341 26.4226 5.2682C26.4226 6.572 27.0081 7.7409 27.9294 8.52817L23.8995 16.1848C23.5441 16.0891 23.1711 16.0373 22.786 16.0373C21.8657 16.0373 21.0128 16.3297 20.3135 16.8251L17.2467 14.0589C17.5973 13.4377 17.7985 12.7213 17.7985 11.9587C17.7985 9.59384 15.8744 7.66999 13.5096 7.66999C11.1449 7.66999 9.2209 9.5939 9.2209 11.9587C9.2209 13.1002 9.67006 14.1381 10.3999 14.9074L5.8315 21.7308C5.35237 21.5454 4.83246 21.4426 4.28864 21.4426C1.92386 21.4426 0 23.3665 0 25.7313C0 28.0961 1.92386 30.02 4.2887 30.02C6.65337 30.02 8.5774 28.0961 8.5774 25.7313C8.5774 24.5897 8.12823 23.5518 7.39838 22.7825L11.9668 15.959C12.4459 16.1445 12.9658 16.2473 13.5097 16.2473C14.4301 16.2473 15.2829 15.9549 15.9823 15.4595L19.0489 18.2257C18.6985 18.8469 18.4973 19.5632 18.4973 20.3259C18.4973 22.6907 20.4213 24.6146 22.786 24.6146C25.1508 24.6146 27.0748 22.6907 27.0748 20.3259C27.0748 19.0221 26.4892 17.8532 25.5681 17.0659L29.5979 9.40941C29.9532 9.50503 30.3262 9.5569 30.7114 9.5569C33.0762 9.5569 35.0001 7.63298 35.0001 5.2682C35 2.90341 33.0761 0.979492 30.7113 0.979492ZM4.2887 28.133C2.96436 28.133 1.88697 27.0556 1.88697 25.7313C1.88697 24.407 2.96436 23.3296 4.2887 23.3296C5.61304 23.3296 6.69043 24.407 6.69043 25.7313C6.69043 27.0556 5.61304 28.133 4.2887 28.133ZM13.5096 14.3604C12.1853 14.3604 11.1079 13.283 11.1079 11.9587C11.1079 10.6344 12.1853 9.55701 13.5096 9.55701C14.8339 9.55701 15.9115 10.6344 15.9115 11.9587C15.9115 13.283 14.8339 14.3604 13.5096 14.3604ZM20.3843 20.3259C20.3843 19.0018 21.4617 17.9244 22.786 17.9244C24.1104 17.9244 25.1879 19.0018 25.1879 20.3259C25.1879 21.6503 24.1104 22.7277 22.786 22.7277C21.4617 22.7277 20.3843 21.6503 20.3843 20.3259ZM30.7113 7.66993C29.387 7.66993 28.3096 6.59253 28.3096 5.2682C28.3096 3.94386 29.387 2.86646 30.7113 2.86646C32.0356 2.86646 33.113 3.94386 33.113 5.2682C33.113 6.59259 32.0356 7.66993 30.7113 7.66993Z" fill="#EB9001"/>
</svg>
