<svg width="20" height="19" viewBox="0 0 20 19" fill="none" xmlns="http://www.w3.org/2000/svg">
<path d="M16.5625 2.375H13.125V1.78125C13.125 0.799076 12.2839 0 11.25 0H8.75C7.71613 0 6.875 0.799076 6.875 1.78125V2.375H3.4375C2.57594 2.375 1.875 3.04089 1.875 3.85938V5.9375C1.875 6.2654 2.15484 6.53125 2.5 6.53125H2.84156L3.38152 17.3035C3.42922 18.2548 4.25187 19 5.25437 19H14.7456C15.7482 19 16.5708 18.2548 16.6185 17.3035L17.1584 6.53125H17.5C17.8452 6.53125 18.125 6.2654 18.125 5.9375V3.85938C18.125 3.04089 17.4241 2.375 16.5625 2.375ZM8.125 1.78125C8.125 1.45387 8.40539 1.1875 8.75 1.1875H11.25C11.5946 1.1875 11.875 1.45387 11.875 1.78125V2.375H8.125V1.78125ZM3.125 3.85938C3.125 3.69569 3.2652 3.5625 3.4375 3.5625H16.5625C16.7348 3.5625 16.875 3.69569 16.875 3.85938V5.34375C16.6824 5.34375 3.92316 5.34375 3.125 5.34375V3.85938ZM15.3699 17.247C15.354 17.5641 15.0798 17.8125 14.7456 17.8125H5.25437C4.9202 17.8125 4.64598 17.5641 4.63012 17.247L4.09297 6.53125H15.907L15.3699 17.247Z" fill="#EB9001"/>
<path d="M10 16.625C10.3452 16.625 10.625 16.3591 10.625 16.0312V8.3125C10.625 7.9846 10.3452 7.71875 10 7.71875C9.65484 7.71875 9.375 7.9846 9.375 8.3125V16.0312C9.375 16.3591 9.6548 16.625 10 16.625Z" fill="#EB9001"/>
<path d="M13.125 16.625C13.4702 16.625 13.75 16.3591 13.75 16.0312V8.3125C13.75 7.9846 13.4702 7.71875 13.125 7.71875C12.7798 7.71875 12.5 7.9846 12.5 8.3125V16.0312C12.5 16.3591 12.7798 16.625 13.125 16.625Z" fill="#EB9001"/>
<path d="M6.875 16.625C7.22016 16.625 7.5 16.3591 7.5 16.0312V8.3125C7.5 7.9846 7.22016 7.71875 6.875 7.71875C6.52984 7.71875 6.25 7.9846 6.25 8.3125V16.0312C6.25 16.3591 6.5298 16.625 6.875 16.625Z" fill="#EB9001"/>
</svg>
